<svg xmlns="http://www.w3.org/2000/svg" viewBox="0 0 512 512" role="img" aria-label="Agrent">
  <defs>
    <linearGradient id="agrent-gold" x1="0" y1="0" x2="0" y2="1">
      <stop offset="0" stop-color="#E8C766"/>
      <stop offset="1" stop-color="#C79A2E"/>
    </linearGradient>
  </defs>
  <rect width="512" height="512" rx="112" fill="#0b1220"/>
  <!-- stylised furrows / field rows (muted gold on the dark app shell) -->
  <g fill="none" stroke="#9a7b30" stroke-width="22" stroke-linecap="round">
    <path d="M104 360 C 180 300, 332 300, 408 360"/>
    <path d="M104 300 C 180 240, 332 240, 408 300"/>
    <path d="M104 240 C 180 180, 332 180, 408 240"/>
  </g>
  <!-- seedling / sprout — the Agrent mark, metallic gold -->
  <g fill="url(#agrent-gold)">
    <path d="M256 196 C 256 150, 232 120, 196 116 C 200 156, 224 184, 256 196 Z"/>
    <path d="M256 196 C 256 150, 280 120, 316 116 C 312 156, 288 184, 256 196 Z"/>
  </g>
  <rect x="248" y="188" width="16" height="56" rx="8" fill="url(#agrent-gold)"/>
</svg>
